<svg width="586" height="124" viewBox="0 0 586 124" fill="none" xmlns="http://www.w3.org/2000/svg">
<path d="M0.447266 67.2117C0.447266 95.4244 29.8006 123.638 62.0856 123.638C97.4317 123.638 125.829 93.8882 123.604 58.0633C121.664 26.8421 95.8753 1.66175 64.6197 0.410519C50.9093 -0.140798 38.1414 3.79308 27.6649 10.859C27.6649 5.86913 23.6198 1.82399 18.6278 1.82399H0.447983C0.447983 1.82399 0.447266 38.9991 0.447266 67.2117ZM62.0856 27.5751C81.0975 27.5751 96.5085 42.9883 96.5085 61.9979C96.5085 81.0097 81.0975 96.4208 62.0856 96.4208C43.076 96.4208 27.6642 81.0097 27.6642 61.9979C27.6642 42.9883 43.076 27.5751 62.0856 27.5751Z" fill="url(#paint0_linear_249_640)"/>
<path d="M0.447266 23.4297C0.447266 33.0986 0.447266 42.2972 0.447266 53.5956C4.43354 63.3815 11.5684 75.3561 23.5954 84.6216C49.1283 104.291 72.8141 94.7082 72.8141 94.7082L72.8018 94.696C69.4265 95.8015 65.8307 96.4196 62.0849 96.4196C43.0752 96.4196 27.6635 81.0086 27.6635 61.9967C27.6635 58.4333 28.2062 54.9954 29.2098 51.76L0.447266 23.4297Z" fill="url(#paint1_linear_249_640)"/>
<path d="M102.371 108.649C110.453 96.4787 112.931 79.0304 96.5087 55.3359C96.5087 55.3359 104.288 92.9253 80.1106 108.951C66.4942 117.978 51.5821 119.821 41.1509 119.707C47.7861 122.217 54.862 123.639 62.0866 123.639C77.489 123.64 91.5677 117.987 102.371 108.649Z" fill="#35029C"/>
<path d="M46.0559 31.5344L46.0724 31.5416C50.8584 29.019 56.3012 27.5761 62.0857 27.5761C76.6246 27.5761 89.0306 36.6025 94.0765 49.3452L94.1016 49.3553C94.1016 49.3553 105.867 73.1696 97.1597 93.3917C89.5683 111.019 79.8571 119.123 69.1014 123.234C101.104 119.608 125.68 91.4843 123.603 58.0644C123.118 50.2547 121.14 42.8227 117.959 36.049C110.379 28.8051 101.42 23.6954 92.2682 21.8426C58.093 14.9231 46.0559 31.5344 46.0559 31.5344Z" fill="url(#paint2_linear_249_640)"/>
<path d="M46.056 31.5348L46.0725 31.542C47.5413 30.7681 49.0782 30.1106 50.6625 29.5513C58.2755 25.3842 69.9852 23.2801 87.3151 27.5765C104.628 31.8715 117.032 43.8892 122.655 50.5997C121.695 45.508 120.109 40.6258 117.958 36.0487C110.378 28.8048 101.42 23.695 92.2676 21.8422C58.0931 14.9235 46.056 31.5348 46.056 31.5348Z" fill="#022C90"/>
<path d="M94.0765 49.345L94.1017 49.355C94.1017 49.355 105.867 73.1693 97.1597 93.3915C89.5684 111.019 79.8571 119.123 69.1014 123.234C74.382 122.635 79.4551 121.357 84.2454 119.511C101.058 108.483 107.696 89.8905 103.029 67.224C97.0133 37.9971 77.7208 31.3281 77.7208 31.3281C77.7208 31.3281 77.7158 31.3432 77.7143 31.3446C85.1262 35.1414 90.9847 41.5404 94.0765 49.345Z" fill="url(#paint3_linear_249_640)"/>
<path d="M49.1376 93.8963L49.1239 93.8762C36.5427 88.7542 27.6642 76.4214 27.6642 61.9989C27.6642 61.5567 27.713 61.1231 27.7303 60.6838L27.6642 60.5804V10.8592C27.6642 5.86936 23.6191 1.82422 18.6271 1.82422H0.447266C0.447266 1.82422 0.447266 16.9459 0.447266 35.2184C13.6121 88.6803 49.1376 93.8963 49.1376 93.8963Z" fill="url(#paint4_linear_249_640)"/>
<path opacity="0.5" d="M49.1376 93.8967L49.1239 93.8766C28.2866 87.9299 7.33801 53.9413 0.447266 19.6836C0.447266 24.3404 0.447266 29.6288 0.447266 35.2188C13.6121 88.6807 49.1376 93.8967 49.1376 93.8967Z" fill="#F44B3C"/>
<path d="M22.8401 49.8247C25.0511 73.0424 31.1522 79.5556 33.1041 81.0731C33.4874 81.3725 33.7128 81.4759 33.7128 81.4759V81.4744C29.8988 75.9376 27.6648 69.232 27.6648 61.9989C27.6648 61.5567 27.7137 61.1231 27.7309 60.6838L27.6648 60.5804V10.8592C27.6648 5.86936 23.6197 1.82422 18.6277 1.82422H0.447876C10.3953 6.02298 20.1912 22.0212 22.8401 49.8247Z" fill="url(#paint5_linear_249_640)"/>
<path d="M27.6644 60.5791L27.7305 60.6824C27.7269 60.7743 27.7219 60.8669 27.7168 60.9603C28.0987 48.1773 35.4216 37.1524 46.0725 31.5409L46.056 31.5337C46.056 31.5337 58.0931 14.9224 92.2683 21.8412C101.42 23.694 110.379 28.8037 117.959 36.0476C118.297 36.7676 102.758 0.410156 64.6206 0.410156C50.898 0.410156 38.1423 3.79271 27.6659 10.8586V60.5791H27.6644Z" fill="url(#paint6_linear_249_640)"/>
<path d="M77.7202 1.93848C73.6887 0.967935 69.3277 0.410156 64.6193 0.410156C50.8967 0.410156 38.141 3.79271 27.6646 10.8586V60.5798L27.7306 60.6832C27.727 60.775 27.722 60.8677 27.717 60.961C27.8627 56.0924 29.0199 51.4845 30.9775 47.3295C31.0399 38.0935 33.0485 20.7873 46.0554 10.2513C55.8772 2.29741 68.2861 1.21919 77.7202 1.93848Z" fill="url(#paint7_linear_249_640)"/>
<path d="M45.4509 31.8951C45.6591 31.7802 45.8615 31.6517 46.0726 31.5404L46.0561 31.5333C46.0561 31.5333 58.0932 14.922 92.2684 21.8407C101.42 23.6935 110.379 28.8032 117.959 36.0472C118.131 36.4118 114.2 27.2232 105.308 18.0849C96.5353 14.6879 84.1429 12.9392 71.0678 16.1574C53.2282 20.5493 47.3411 27.6848 45.4509 31.8951Z" fill="url(#paint8_linear_249_640)"/>
<path d="M151.551 25.3398H160.19V102.489H151.551V25.3398Z" fill="#33009D"/>
<path d="M207.531 43.023C214.267 43.023 219.37 45.1113 222.839 49.2879C226.308 53.4645 228.043 59.982 228.043 68.8404V102.489H220.01V68.7898C220.01 62.6597 218.831 58.0115 216.473 54.8454C214.149 51.6793 210.427 50.0962 205.308 50.0962C202.141 50.0962 198.958 51.073 195.759 53.0266C192.593 54.9802 189.847 57.5905 187.523 60.8577L187.574 102.489H179.49V44.9429H186.563L187.523 52.7234V53.1276C190.151 50.1299 193.249 47.7048 196.82 45.8523C200.424 43.9661 203.994 43.023 207.531 43.023Z" fill="#33009D"/>
<path d="M293.673 102.489H285.64V52.1172H259.115V102.489H251.031V52.1172H239.764V44.9429H251.031V42.2146C251.031 34.3667 252.631 28.7081 255.831 25.2388C259.031 21.7358 263.174 19.9844 268.26 19.9844C270.651 19.9844 272.655 20.1865 274.272 20.5907C275.922 20.9612 277.842 21.5169 280.031 22.2579L280.385 29.3817C278.768 28.5733 277.152 27.9671 275.535 27.5629C273.952 27.125 272.049 26.9061 269.826 26.9061C266.559 26.9061 263.948 28.0513 261.995 30.3416C260.075 32.5983 259.115 36.556 259.115 42.2146V44.9429H293.673V102.489Z" fill="#33009D"/>
<path d="M333.333 43.023C348.558 43.023 356.17 50.6688 356.17 65.9605L356.119 102.489H349.097L348.036 94.7588C345.442 97.7228 342.411 100.081 338.942 101.832C335.506 103.55 331.919 104.409 328.18 104.409C324.408 104.409 321.141 103.735 318.379 102.388C315.65 101.041 313.545 99.087 312.063 96.5271C310.581 93.9336 309.84 90.8348 309.84 87.2308C309.84 83.5258 310.733 80.3428 312.518 77.6819C314.337 75.021 316.846 73.017 320.046 71.6697C323.279 70.2887 326.984 69.5982 331.161 69.5982C333.586 69.5982 336.129 69.7835 338.79 70.154C341.485 70.5245 344.566 71.0465 348.036 71.7202V66.1121C348.036 61.464 346.958 57.6242 344.802 54.5928C342.647 51.5614 338.487 50.0457 332.323 50.0457C328.719 50.0457 325.216 50.5846 321.814 51.6625C318.446 52.7403 315.027 54.357 311.558 56.5127L312.265 49.0352C315.499 47.0817 318.901 45.5997 322.471 44.5892C326.075 43.5451 329.696 43.023 333.333 43.023ZM330.353 97.4365C333.822 97.4365 337.055 96.544 340.053 94.7588C343.084 92.94 345.745 90.4475 348.036 87.2814V78.1366C347.194 77.9682 346.621 77.8503 346.318 77.783C343.623 77.2441 341.249 76.8399 339.194 76.5704C337.14 76.2673 334.95 76.1157 332.626 76.1157C327.81 76.1157 324.105 76.9241 321.511 78.5408C318.918 80.1239 317.621 82.8185 317.621 86.6245C317.621 90.2622 318.699 92.9736 320.854 94.7588C323.044 96.544 326.21 97.4365 330.353 97.4365Z" fill="#33009D"/>
<path d="M402.651 52.0666H371.731V44.9429H415.181L381.078 95.3651H414.524V102.489H368.195L402.651 52.0666Z" fill="#33009D"/>
<path d="M475.152 44.9429V102.489H468.079L467.069 94.6578V94.203C464.441 97.2681 461.326 99.7438 457.722 101.63C454.151 103.482 450.615 104.409 447.112 104.409C440.375 104.409 435.256 102.32 431.753 98.1439C428.284 93.9673 426.549 87.4498 426.549 78.5914V44.9429H434.582V78.5914C434.582 84.7552 435.761 89.437 438.119 92.6368C440.476 95.8029 444.215 97.386 449.335 97.386C452.467 97.386 455.633 96.4092 458.833 94.4557C462.067 92.4684 464.812 89.8412 467.069 86.574L467.018 44.9429H475.152Z" fill="#33009D"/>
<path d="M526.534 51.9151C523.907 50.8036 521.095 50.2478 518.097 50.2478C515.167 50.2478 512.354 51.2077 509.66 53.1276C506.999 55.0475 504.675 57.7589 502.687 61.2619L502.738 102.489H494.654V44.9429H501.677L502.586 52.9255C504.91 49.6921 507.453 47.2333 510.215 45.5491C513.011 43.8314 515.874 42.9725 518.804 42.9725C521.465 42.9725 523.924 43.4103 526.181 44.2861L526.534 51.9151Z" fill="#33009D"/>
<path d="M586 69.5982C586 70.575 585.967 71.9223 585.899 73.6401C585.832 75.3242 585.748 76.3515 585.647 76.722H540.833C541.001 80.7302 542.079 84.3005 544.066 87.4329C546.053 90.5654 548.697 93.0073 551.998 94.7588C555.333 96.5103 559.021 97.386 563.063 97.386C565.825 97.386 568.351 97.0997 570.641 96.5271C572.965 95.9545 575.087 95.2135 577.007 94.3041C578.927 93.361 581.1 92.1484 583.525 90.6664L583.019 98.3459C579.887 100.097 576.654 101.546 573.319 102.691C569.984 103.87 566.296 104.459 562.254 104.459C556.528 104.459 551.459 103.129 547.047 100.468C542.635 97.7734 539.199 94.0515 536.74 89.3023C534.281 84.5194 533.052 79.0966 533.052 73.0338C533.052 67.2068 534.264 62.0197 536.69 57.4726C539.115 52.8919 542.416 49.3384 546.592 46.8122C550.769 44.2524 555.4 42.9725 560.486 42.9725C565.639 42.9725 570.136 44.1682 573.976 46.5596C577.849 48.9174 580.813 52.1172 582.868 56.159C584.956 60.2009 586 64.6806 586 69.5982ZM578.674 70.2045C578.742 65.9269 578.034 62.2723 576.552 59.2409C575.104 56.1759 573.016 53.8686 570.288 52.3193C567.593 50.7362 564.477 49.9447 560.941 49.9447C557.034 49.9447 553.598 50.7867 550.634 52.4708C547.704 54.1213 545.396 56.479 543.712 59.5441C542.028 62.6092 541.102 66.1626 540.934 70.2045H578.674Z" fill="#33009D"/>
<path d="M309.53 11.3164C309.808 11.3164 310.087 11.3164 310.381 11.3164C311.063 19.8189 307.845 26.172 303.933 30.7726C300.095 35.3415 294.839 39.7728 286.338 39.1004C285.771 30.7197 288.995 24.8378 292.901 20.2477C296.524 15.97 303.166 12.1635 309.53 11.3164Z" fill="url(#paint9_linear_249_640)"/>
<defs>
<linearGradient id="paint0_linear_249_640" x1="123.726" y1="61.999" x2="0.447486" y2="61.999" gradientUnits="userSpaceOnUse">
<stop stop-color="#35029C"/>
<stop offset="0.2578" stop-color="#38049E"/>
<stop offset="0.4268" stop-color="#4009A5"/>
<stop offset="0.5704" stop-color="#4F13B0"/>
<stop offset="0.6997" stop-color="#6520BF"/>
<stop offset="0.8194" stop-color="#8031D4"/>
<stop offset="0.9305" stop-color="#A145EC"/>
<stop offset="1" stop-color="#BA55FF"/>
</linearGradient>
<linearGradient id="paint1_linear_249_640" x1="-0.270595" y1="35.5334" x2="36.6307" y2="97.0421" gradientUnits="userSpaceOnUse">
<stop stop-color="#CE6DFE"/>
<stop offset="0.238141" stop-color="#C664F8"/>
<stop offset="0.519194" stop-color="#B44FEB"/>
<stop offset="0.752618" stop-color="#9A38DC"/>
<stop offset="1" stop-color="#721FCC"/>
</linearGradient>
<linearGradient id="paint2_linear_249_640" x1="97.7313" y1="118.393" x2="80.7439" y2="20.1084" gradientUnits="userSpaceOnUse">
<stop stop-color="#64EBEC"/>
<stop offset="0.1103" stop-color="#5CC5E2"/>
<stop offset="0.2592" stop-color="#5298D7"/>
<stop offset="0.4093" stop-color="#4A73CD"/>
<stop offset="0.5585" stop-color="#4356C6"/>
<stop offset="0.7064" stop-color="#3F41C0"/>
<stop offset="0.8525" stop-color="#3C35BD"/>
<stop offset="0.9947" stop-color="#3B31BC"/>
</linearGradient>
<linearGradient id="paint3_linear_249_640" x1="86.7927" y1="31.3281" x2="86.7927" y2="123.234" gradientUnits="userSpaceOnUse">
<stop stop-color="#514FD2"/>
<stop offset="0.500752" stop-color="#63A5DE"/>
<stop offset="1" stop-color="#80EBF0"/>
</linearGradient>
<linearGradient id="paint4_linear_249_640" x1="32.455" y1="94.6945" x2="8.59232" y2="0.86114" gradientUnits="userSpaceOnUse">
<stop stop-color="#FCED00"/>
<stop offset="0.1374" stop-color="#FAC90D"/>
<stop offset="0.3352" stop-color="#F89C1E"/>
<stop offset="0.5255" stop-color="#F6792B"/>
<stop offset="0.7037" stop-color="#F56034"/>
<stop offset="0.865" stop-color="#F4503A"/>
<stop offset="0.9947" stop-color="#F44C3C"/>
</linearGradient>
<linearGradient id="paint5_linear_249_640" x1="5.83111" y1="0.359602" x2="33.4687" y2="79.3242" gradientUnits="userSpaceOnUse">
<stop stop-color="#F7624E"/>
<stop offset="1" stop-color="#FCD714"/>
</linearGradient>
<linearGradient id="paint6_linear_249_640" x1="95.301" y1="8.28595" x2="28.1605" y2="53.5855" gradientUnits="userSpaceOnUse">
<stop stop-color="#993EFF"/>
<stop offset="0.143" stop-color="#9B3EFB"/>
<stop offset="0.2865" stop-color="#A03FEF"/>
<stop offset="0.4303" stop-color="#AA40DB"/>
<stop offset="0.5743" stop-color="#B742BF"/>
<stop offset="0.7186" stop-color="#C8459A"/>
<stop offset="0.8612" stop-color="#DD486E"/>
<stop offset="1" stop-color="#F44B3C"/>
</linearGradient>
<linearGradient id="paint7_linear_249_640" x1="52.6924" y1="0.410156" x2="27.7263" y2="47.0199" gradientUnits="userSpaceOnUse">
<stop stop-color="#8022F3"/>
<stop offset="1" stop-color="#BE2850"/>
</linearGradient>
<linearGradient id="paint8_linear_249_640" x1="112.793" y1="25.4837" x2="45.6728" y2="31.5855" gradientUnits="userSpaceOnUse">
<stop stop-color="#B851FF"/>
<stop offset="0.474928" stop-color="#BD52F4"/>
<stop offset="1" stop-color="white" stop-opacity="0"/>
</linearGradient>
<linearGradient id="paint9_linear_249_640" x1="298.373" y1="11.3164" x2="288.349" y2="39.1468" gradientUnits="userSpaceOnUse">
<stop stop-color="#4B78CE"/>
<stop offset="0.529703" stop-color="#BE55F4"/>
<stop offset="1" stop-color="#5014B1"/>
</linearGradient>
</defs>
</svg>
