<svg width="538" height="542" viewBox="0 0 538 542" fill="none" xmlns="http://www.w3.org/2000/svg">
<path d="M116.063 162.685C116.063 231.341 187.494 300 266.06 300C352.074 300 421.179 227.603 415.765 140.423C411.043 64.4459 348.287 3.16933 272.226 0.12446C238.862 -1.21717 207.791 8.35593 182.297 25.5508C182.297 13.408 172.453 3.56414 160.305 3.56414H116.064C116.064 3.56414 116.063 94.0299 116.063 162.685ZM266.06 66.2295C312.325 66.2295 349.828 103.738 349.828 149.998C349.828 196.263 312.325 233.766 266.06 233.766C219.8 233.766 182.295 196.263 182.295 149.998C182.295 103.738 219.8 66.2295 266.06 66.2295Z" fill="url(#paint0_linear_249_562)"/>
<path d="M116.062 56.1445C116.062 79.6737 116.062 102.059 116.062 129.553C125.763 153.367 143.126 182.508 172.394 205.055C234.528 252.921 292.167 229.601 292.167 229.601L292.138 229.571C283.924 232.262 275.173 233.766 266.058 233.766C219.798 233.766 182.293 196.263 182.293 149.998C182.293 141.326 183.614 132.96 186.056 125.087L116.062 56.1445Z" fill="url(#paint1_linear_249_562)"/>
<path d="M364.095 263.519C383.762 233.902 389.792 191.442 349.828 133.781C349.828 133.781 368.759 225.255 309.923 264.255C276.787 286.221 240.499 290.707 215.114 290.429C231.261 296.536 248.48 299.997 266.061 299.997C303.543 299.999 337.804 286.243 364.095 263.519Z" fill="#35029C"/>
<path d="M227.051 75.8645L227.091 75.882C238.738 69.7433 251.983 66.232 266.06 66.232C301.44 66.232 331.63 88.1977 343.909 119.207L343.97 119.232C343.97 119.232 372.601 177.184 351.412 226.394C332.939 269.292 309.306 289.013 283.132 299.016C361.01 290.192 420.817 221.753 415.762 140.425C414.581 121.421 409.768 103.335 402.027 86.8509C383.582 69.2228 361.78 56.7882 339.509 52.2794C256.343 35.4409 227.051 75.8645 227.051 75.8645Z" fill="url(#paint2_linear_249_562)"/>
<path d="M227.051 75.8655L227.091 75.883C230.665 73.9998 234.406 72.3996 238.261 71.0388C256.787 60.8979 285.283 55.7777 327.455 66.233C369.585 76.6848 399.77 105.93 413.454 122.26C411.118 109.869 407.259 97.9885 402.026 86.8501C383.58 69.222 361.778 56.7874 339.507 52.2787C256.343 35.4419 227.051 75.8655 227.051 75.8655Z" fill="#022C90"/>
<path d="M343.909 119.207L343.97 119.232C343.97 119.232 372.6 177.184 351.412 226.395C332.939 269.292 309.306 289.013 283.132 299.016C295.983 297.559 308.328 294.449 319.985 289.956C360.898 263.12 377.052 217.875 365.695 162.716C351.056 91.5921 304.107 75.3633 304.107 75.3633C304.107 75.3633 304.095 75.4 304.092 75.4035C322.129 84.6429 336.385 100.215 343.909 119.207Z" fill="url(#paint3_linear_249_562)"/>
<path d="M234.551 227.62L234.517 227.571C203.901 215.107 182.295 185.095 182.295 149.998C182.295 148.922 182.414 147.866 182.456 146.797L182.295 146.546V25.5492C182.295 13.4064 172.451 3.5625 160.303 3.5625H116.062C116.062 3.5625 116.062 40.3613 116.062 84.8273C148.099 214.927 234.551 227.62 234.551 227.62Z" fill="url(#paint4_linear_249_562)"/>
<path opacity="0.5" d="M234.551 227.621L234.517 227.572C183.81 213.101 132.831 130.39 116.062 47.0234C116.062 58.3557 116.062 71.2252 116.062 84.8284C148.099 214.928 234.551 227.621 234.551 227.621Z" fill="#F44B3C"/>
<path d="M170.556 120.372C175.936 176.872 190.783 192.722 195.533 196.415C196.466 197.143 197.015 197.395 197.015 197.395V197.392C187.733 183.918 182.297 167.6 182.297 149.998C182.297 148.922 182.416 147.866 182.457 146.797L182.297 146.546V25.5492C182.297 13.4064 172.453 3.5625 160.305 3.5625H116.064C140.271 13.7802 164.11 52.712 170.556 120.372Z" fill="url(#paint5_linear_249_562)"/>
<path d="M182.295 146.546L182.456 146.798C182.447 147.021 182.435 147.247 182.423 147.474C183.352 116.367 201.172 89.5374 227.091 75.8817L227.051 75.8643C227.051 75.8643 256.343 35.4406 339.509 52.2774C361.78 56.7862 383.582 69.2208 402.027 86.8489C402.85 88.601 365.035 0.125 272.228 0.125C238.834 0.125 207.793 8.35646 182.299 25.5513V146.546H182.295Z" fill="url(#paint6_linear_249_562)"/>
<path d="M304.106 3.84419C294.295 1.48236 283.683 0.125 272.224 0.125C238.83 0.125 207.79 8.35647 182.295 25.5514V146.548L182.456 146.8C182.447 147.023 182.435 147.249 182.423 147.476C182.777 135.628 185.593 124.415 190.357 114.303C190.509 91.8276 195.397 49.7129 227.049 24.0735C250.951 4.71764 281.148 2.09378 304.106 3.84419Z" fill="url(#paint7_linear_249_562)"/>
<path d="M225.578 76.7441C226.085 76.4646 226.578 76.1519 227.091 75.8811L227.051 75.8636C227.051 75.8636 256.343 35.44 339.509 52.2768C361.78 56.7856 383.582 69.2201 402.027 86.8483C402.447 87.7357 392.879 65.3752 371.241 43.1369C349.892 34.8705 319.735 30.615 287.917 38.4465C244.504 49.1341 230.178 66.4984 225.578 76.7441Z" fill="url(#paint8_linear_249_562)"/>
<path d="M0 358.562H10.6875V454H0V358.562Z" fill="#33009D"/>
<path d="M69.25 380.438C77.5833 380.438 83.8958 383.021 88.1875 388.188C92.4792 393.354 94.625 401.417 94.625 412.375V454H84.6875V412.312C84.6875 404.729 83.2292 398.979 80.3125 395.062C77.4375 391.146 72.8333 389.188 66.5 389.188C62.5833 389.188 58.6458 390.396 54.6875 392.812C50.7708 395.229 47.375 398.458 44.5 402.5L44.5625 454H34.5625V382.812H43.3125L44.5 392.438V392.938C47.75 389.229 51.5833 386.229 56 383.938C60.4583 381.604 64.875 380.438 69.25 380.438Z" fill="#33009D"/>
<path d="M175.812 454H165.875V391.688H133.062V454H123.062V391.688H109.125V382.812H123.062V379.438C123.062 369.729 125.042 362.729 129 358.438C132.958 354.104 138.083 351.938 144.375 351.938C147.333 351.938 149.812 352.188 151.812 352.688C153.854 353.146 156.229 353.833 158.938 354.75L159.375 363.562C157.375 362.562 155.375 361.812 153.375 361.312C151.417 360.771 149.062 360.5 146.312 360.5C142.271 360.5 139.042 361.917 136.625 364.75C134.25 367.542 133.062 372.438 133.062 379.438V382.812H175.812V454Z" fill="#33009D"/>
<path d="M224.875 380.438C243.708 380.438 253.125 389.896 253.125 408.812L253.062 454H244.375L243.062 444.438C239.854 448.104 236.104 451.021 231.812 453.188C227.562 455.312 223.125 456.375 218.5 456.375C213.833 456.375 209.792 455.542 206.375 453.875C203 452.208 200.396 449.792 198.562 446.625C196.729 443.417 195.812 439.583 195.812 435.125C195.812 430.542 196.917 426.604 199.125 423.312C201.375 420.021 204.479 417.542 208.438 415.875C212.438 414.167 217.021 413.312 222.188 413.312C225.188 413.312 228.333 413.542 231.625 414C234.958 414.458 238.771 415.104 243.062 415.938V409C243.062 403.25 241.729 398.5 239.062 394.75C236.396 391 231.25 389.125 223.625 389.125C219.167 389.125 214.833 389.792 210.625 391.125C206.458 392.458 202.229 394.458 197.938 397.125L198.812 387.875C202.812 385.458 207.021 383.625 211.438 382.375C215.896 381.083 220.375 380.438 224.875 380.438ZM221.188 447.75C225.479 447.75 229.479 446.646 233.188 444.438C236.938 442.188 240.229 439.104 243.062 435.188V423.875C242.021 423.667 241.312 423.521 240.938 423.438C237.604 422.771 234.667 422.271 232.125 421.938C229.583 421.562 226.875 421.375 224 421.375C218.042 421.375 213.458 422.375 210.25 424.375C207.042 426.333 205.438 429.667 205.438 434.375C205.438 438.875 206.771 442.229 209.438 444.438C212.146 446.646 216.062 447.75 221.188 447.75Z" fill="#33009D"/>
<path d="M310.625 391.625H272.375V382.812H326.125L283.938 445.188H325.312V454H268L310.625 391.625Z" fill="#33009D"/>
<path d="M400.312 382.812V454H391.562L390.312 444.312V443.75C387.062 447.542 383.208 450.604 378.75 452.938C374.333 455.229 369.958 456.375 365.625 456.375C357.292 456.375 350.958 453.792 346.625 448.625C342.333 443.458 340.188 435.396 340.188 424.438V382.812H350.125V424.438C350.125 432.062 351.583 437.854 354.5 441.812C357.417 445.729 362.042 447.688 368.375 447.688C372.25 447.688 376.167 446.479 380.125 444.062C384.125 441.604 387.521 438.354 390.312 434.312L390.25 382.812H400.312Z" fill="#33009D"/>
<path d="M463.875 391.438C460.625 390.062 457.146 389.375 453.438 389.375C449.812 389.375 446.333 390.562 443 392.938C439.708 395.312 436.833 398.667 434.375 403L434.438 454H424.438V382.812H433.125L434.25 392.688C437.125 388.688 440.271 385.646 443.688 383.562C447.146 381.438 450.688 380.375 454.312 380.375C457.604 380.375 460.646 380.917 463.438 382L463.875 391.438Z" fill="#33009D"/>
<path d="M537.438 413.312C537.438 414.521 537.396 416.188 537.312 418.312C537.229 420.396 537.125 421.667 537 422.125H481.562C481.771 427.083 483.104 431.5 485.562 435.375C488.021 439.25 491.292 442.271 495.375 444.438C499.5 446.604 504.062 447.688 509.062 447.688C512.479 447.688 515.604 447.333 518.438 446.625C521.312 445.917 523.938 445 526.312 443.875C528.688 442.708 531.375 441.208 534.375 439.375L533.75 448.875C529.875 451.042 525.875 452.833 521.75 454.25C517.625 455.708 513.062 456.438 508.062 456.438C500.979 456.438 494.708 454.792 489.25 451.5C483.792 448.167 479.542 443.562 476.5 437.688C473.458 431.771 471.938 425.062 471.938 417.562C471.938 410.354 473.438 403.938 476.438 398.312C479.438 392.646 483.521 388.25 488.688 385.125C493.854 381.958 499.583 380.375 505.875 380.375C512.25 380.375 517.812 381.854 522.562 384.812C527.354 387.729 531.021 391.688 533.562 396.688C536.146 401.688 537.438 407.229 537.438 413.312ZM528.375 414.062C528.458 408.771 527.583 404.25 525.75 400.5C523.958 396.708 521.375 393.854 518 391.938C514.667 389.979 510.812 389 506.438 389C501.604 389 497.354 390.042 493.688 392.125C490.062 394.167 487.208 397.083 485.125 400.875C483.042 404.667 481.896 409.062 481.688 414.062H528.375Z" fill="#33009D"/>
<path d="M197.738 335C198.129 335 198.52 335 198.933 335C199.892 346.906 195.37 355.802 189.874 362.244C184.482 368.641 177.097 374.846 165.154 373.905C164.357 362.17 168.887 353.934 174.375 347.506C179.465 341.516 188.797 336.186 197.738 335Z" fill="url(#paint9_linear_249_562)"/>
<mask id="path-15-outside-1_249_562" maskUnits="userSpaceOnUse" x="71.3438" y="487.133" width="386" height="55" fill="black">
<rect fill="white" x="71.3438" y="487.133" width="386" height="55"/>
<path d="M84.8672 492.282H73.3438V490.72H98.0508V492.282H86.5518V528H84.8672V492.282Z"/>
<path d="M126.801 515.158C126.801 516.086 126.785 516.745 126.752 517.136H107.318C107.335 519.138 107.799 520.912 108.71 522.458C109.638 523.988 110.867 525.176 112.396 526.022C113.943 526.853 115.635 527.268 117.475 527.268C118.614 527.268 119.647 527.146 120.575 526.901C121.519 526.657 122.366 526.34 123.114 525.949C123.879 525.559 124.758 525.046 125.751 524.411L125.702 526.169C124.791 526.69 123.977 527.121 123.261 527.463C122.545 527.788 121.674 528.081 120.648 528.342C119.639 528.618 118.541 528.757 117.353 528.757C115.123 528.757 113.121 528.236 111.347 527.194C109.589 526.136 108.214 524.672 107.221 522.8C106.228 520.912 105.731 518.771 105.731 516.379C105.731 514.1 106.228 512.074 107.221 510.3C108.214 508.509 109.54 507.126 111.2 506.149C112.86 505.157 114.659 504.66 116.596 504.66C118.549 504.66 120.299 505.124 121.845 506.052C123.407 506.963 124.62 508.225 125.482 509.836C126.361 511.431 126.801 513.205 126.801 515.158ZM125.287 515.744C125.336 513.791 124.978 512.09 124.213 510.642C123.448 509.177 122.398 508.062 121.063 507.297C119.729 506.532 118.24 506.149 116.596 506.149C114.822 506.149 113.243 506.564 111.859 507.395C110.476 508.225 109.385 509.372 108.588 510.837C107.79 512.285 107.359 513.921 107.294 515.744H125.287Z"/>
<path d="M153.134 528.757C150.92 528.757 148.886 528.228 147.03 527.17C145.191 526.096 143.734 524.639 142.66 522.8C141.602 520.961 141.073 518.934 141.073 516.721C141.073 514.507 141.602 512.481 142.66 510.642C143.734 508.786 145.191 507.329 147.03 506.271C148.886 505.197 150.92 504.66 153.134 504.66C154.517 504.66 155.836 504.88 157.089 505.319C158.342 505.759 159.49 506.385 160.531 507.199L160.556 508.981C159.595 508.086 158.48 507.395 157.211 506.906C155.941 506.402 154.599 506.149 153.183 506.149C151.246 506.149 149.464 506.621 147.836 507.565C146.225 508.493 144.947 509.763 144.003 511.374C143.075 512.985 142.611 514.759 142.611 516.696C142.611 518.649 143.075 520.44 144.003 522.067C144.947 523.679 146.225 524.956 147.836 525.9C149.464 526.828 151.254 527.292 153.207 527.292C154.623 527.292 155.958 527.048 157.211 526.56C158.48 526.055 159.595 525.347 160.556 524.436L160.531 526.242C159.522 527.04 158.391 527.658 157.138 528.098C155.901 528.537 154.566 528.757 153.134 528.757Z"/>
<path d="M188.183 504.685C190.917 504.685 192.992 505.49 194.408 507.102C195.824 508.713 196.532 511.236 196.532 514.67V528H194.945V514.646C194.945 511.716 194.359 509.576 193.188 508.225C192.016 506.857 190.258 506.174 187.914 506.174C186.433 506.174 184.936 506.638 183.422 507.565C181.924 508.477 180.655 509.689 179.613 511.203V528H178.051V489.133H179.613V509.372C180.671 507.989 181.973 506.866 183.52 506.003C185.082 505.124 186.636 504.685 188.183 504.685Z"/>
<path d="M225.478 504.685C228.212 504.685 230.287 505.49 231.703 507.102C233.119 508.713 233.827 511.228 233.827 514.646V528H232.24V514.621C232.24 511.708 231.654 509.576 230.482 508.225C229.311 506.857 227.553 506.174 225.209 506.174C223.76 506.174 222.279 506.621 220.766 507.517C219.268 508.412 217.982 509.632 216.908 511.179L216.933 528H215.346V505.441H216.811L216.908 508.493V509.348C217.966 507.964 219.268 506.841 220.814 505.979C222.377 505.116 223.931 504.685 225.478 504.685Z"/>
<path d="M262.528 528.732C260.299 528.732 258.256 528.203 256.4 527.146C254.545 526.088 253.08 524.639 252.006 522.8C250.948 520.961 250.419 518.934 250.419 516.721C250.419 514.507 250.948 512.481 252.006 510.642C253.08 508.786 254.545 507.329 256.4 506.271C258.256 505.197 260.299 504.66 262.528 504.66C264.758 504.66 266.793 505.197 268.632 506.271C270.487 507.329 271.952 508.786 273.026 510.642C274.101 512.481 274.638 514.507 274.638 516.721C274.638 518.934 274.101 520.961 273.026 522.8C271.952 524.639 270.487 526.088 268.632 527.146C266.793 528.203 264.758 528.732 262.528 528.732ZM262.553 527.243C264.473 527.243 266.231 526.779 267.826 525.852C269.438 524.924 270.707 523.654 271.635 522.043C272.579 520.432 273.051 518.658 273.051 516.721C273.051 514.784 272.579 513.01 271.635 511.398C270.707 509.771 269.438 508.493 267.826 507.565C266.231 506.621 264.465 506.149 262.528 506.149C260.591 506.149 258.817 506.621 257.206 507.565C255.595 508.493 254.317 509.771 253.373 511.398C252.445 513.01 251.981 514.784 251.981 516.721C251.981 518.674 252.445 520.456 253.373 522.067C254.317 523.662 255.595 524.924 257.206 525.852C258.834 526.779 260.616 527.243 262.553 527.243Z"/>
<path d="M291.498 489.133H293.061V528H291.498V489.133Z"/>
<path d="M322.03 528.732C319.8 528.732 317.758 528.203 315.902 527.146C314.047 526.088 312.582 524.639 311.508 522.8C310.45 520.961 309.921 518.934 309.921 516.721C309.921 514.507 310.45 512.481 311.508 510.642C312.582 508.786 314.047 507.329 315.902 506.271C317.758 505.197 319.8 504.66 322.03 504.66C324.26 504.66 326.295 505.197 328.134 506.271C329.989 507.329 331.454 508.786 332.528 510.642C333.603 512.481 334.14 514.507 334.14 516.721C334.14 518.934 333.603 520.961 332.528 522.8C331.454 524.639 329.989 526.088 328.134 527.146C326.295 528.203 324.26 528.732 322.03 528.732ZM322.055 527.243C323.975 527.243 325.733 526.779 327.328 525.852C328.939 524.924 330.209 523.654 331.137 522.043C332.081 520.432 332.553 518.658 332.553 516.721C332.553 514.784 332.081 513.01 331.137 511.398C330.209 509.771 328.939 508.493 327.328 507.565C325.733 506.621 323.967 506.149 322.03 506.149C320.093 506.149 318.319 506.621 316.708 507.565C315.097 508.493 313.819 509.771 312.875 511.398C311.947 513.01 311.483 514.784 311.483 516.721C311.483 518.674 311.947 520.456 312.875 522.067C313.819 523.662 315.097 524.924 316.708 525.852C318.336 526.779 320.118 527.243 322.055 527.243Z"/>
<path d="M364.77 526.071C366.169 526.071 367.357 526.324 368.334 526.828C369.311 527.316 370.035 527.976 370.507 528.806C370.995 529.636 371.239 530.555 371.239 531.564C371.239 533.046 370.661 534.405 369.506 535.642C368.367 536.879 366.828 537.855 364.892 538.571C362.955 539.304 360.871 539.67 358.642 539.67C356.672 539.67 354.931 539.41 353.417 538.889C351.903 538.384 350.723 537.635 349.877 536.643C349.031 535.666 348.607 534.494 348.607 533.127C348.607 532.232 348.974 531.32 349.706 530.393C350.438 529.481 351.48 528.48 352.831 527.39C351.692 527.097 350.927 526.519 350.536 525.656C350.146 524.794 349.966 523.874 349.999 522.897L353.49 519.553C352.481 518.788 351.7 517.852 351.146 516.745C350.593 515.638 350.316 514.426 350.316 513.107C350.316 511.496 350.715 510.048 351.513 508.762C352.31 507.476 353.401 506.475 354.784 505.759C356.184 505.026 357.73 504.66 359.423 504.66C360.855 504.66 362.19 504.921 363.427 505.441H370.385V506.809L365.624 506.784C366.552 507.549 367.276 508.485 367.797 509.592C368.318 510.682 368.578 511.879 368.578 513.181C368.578 514.743 368.179 516.159 367.382 517.429C366.584 518.698 365.494 519.699 364.11 520.432C362.727 521.148 361.189 521.506 359.496 521.506C357.673 521.506 356.037 521.099 354.589 520.285L351.562 523.264C351.562 524.029 351.741 524.688 352.099 525.241C352.473 525.795 353.238 526.071 354.394 526.071H364.77ZM351.854 513.059C351.854 514.442 352.188 515.663 352.855 516.721C353.523 517.779 354.434 518.601 355.59 519.187C356.745 519.772 358.031 520.065 359.447 520.065C360.88 520.065 362.173 519.772 363.329 519.187C364.485 518.601 365.388 517.787 366.039 516.745C366.706 515.687 367.04 514.475 367.04 513.107C367.04 511.724 366.706 510.503 366.039 509.445C365.388 508.387 364.485 507.574 363.329 507.004C362.173 506.418 360.88 506.125 359.447 506.125C358.031 506.125 356.745 506.418 355.59 507.004C354.434 507.574 353.523 508.387 352.855 509.445C352.188 510.487 351.854 511.691 351.854 513.059ZM358.666 538.205C360.57 538.205 362.361 537.92 364.037 537.351C365.73 536.781 367.089 536 368.114 535.007C369.14 534.03 369.652 532.948 369.652 531.76C369.652 530.474 369.229 529.449 368.383 528.684C367.536 527.935 366.299 527.561 364.672 527.561H354.491C353.531 528.342 352.758 529.009 352.172 529.562C351.586 530.132 351.106 530.718 350.731 531.32C350.373 531.939 350.194 532.574 350.194 533.225C350.194 534.234 350.544 535.113 351.244 535.861C351.944 536.61 352.929 537.188 354.198 537.595C355.484 538.002 356.973 538.205 358.666 538.205Z"/>
<path d="M386.635 505.441H388.197V528H386.635V505.441ZM387.416 499.045C386.911 499.045 386.48 498.874 386.122 498.532C385.78 498.19 385.609 497.775 385.609 497.287C385.609 496.783 385.78 496.359 386.122 496.018C386.48 495.66 386.911 495.48 387.416 495.48C387.921 495.48 388.352 495.66 388.71 496.018C389.068 496.359 389.247 496.783 389.247 497.287C389.247 497.775 389.068 498.19 388.71 498.532C388.352 498.874 387.921 499.045 387.416 499.045Z"/>
<path d="M426.127 515.158C426.127 516.086 426.111 516.745 426.078 517.136H406.645C406.661 519.138 407.125 520.912 408.036 522.458C408.964 523.988 410.193 525.176 411.723 526.022C413.269 526.853 414.962 527.268 416.801 527.268C417.94 527.268 418.974 527.146 419.901 526.901C420.845 526.657 421.692 526.34 422.44 525.949C423.205 525.559 424.084 525.046 425.077 524.411L425.028 526.169C424.117 526.69 423.303 527.121 422.587 527.463C421.871 527.788 421 528.081 419.975 528.342C418.965 528.618 417.867 528.757 416.679 528.757C414.449 528.757 412.447 528.236 410.673 527.194C408.915 526.136 407.54 524.672 406.547 522.8C405.554 520.912 405.058 518.771 405.058 516.379C405.058 514.1 405.554 512.074 406.547 510.3C407.54 508.509 408.866 507.126 410.526 506.149C412.187 505.157 413.985 504.66 415.922 504.66C417.875 504.66 419.625 505.124 421.171 506.052C422.733 506.963 423.946 508.225 424.809 509.836C425.688 511.431 426.127 513.205 426.127 515.158ZM424.613 515.744C424.662 513.791 424.304 512.09 423.539 510.642C422.774 509.177 421.724 508.062 420.39 507.297C419.055 506.532 417.566 506.149 415.922 506.149C414.148 506.149 412.569 506.564 411.186 507.395C409.802 508.225 408.712 509.372 407.914 510.837C407.117 512.285 406.685 513.921 406.62 515.744H424.613Z"/>
<path d="M447.528 528.708C446.324 528.708 445.103 528.537 443.866 528.195C442.646 527.87 441.588 527.43 440.692 526.877L440.644 525.192C441.636 525.795 442.743 526.283 443.964 526.657C445.185 527.032 446.324 527.219 447.382 527.219C448.521 527.219 449.53 527.015 450.409 526.608C451.304 526.185 451.996 525.599 452.484 524.851C452.989 524.086 453.241 523.207 453.241 522.214C453.241 521.449 453.062 520.773 452.704 520.188C452.346 519.602 451.752 519.032 450.922 518.479C450.092 517.909 448.936 517.282 447.455 516.599C446.023 515.915 444.883 515.264 444.037 514.646C443.207 514.027 442.597 513.36 442.206 512.644C441.815 511.927 441.62 511.105 441.62 510.178C441.62 509.12 441.881 508.176 442.401 507.346C442.938 506.499 443.679 505.84 444.623 505.368C445.567 504.896 446.649 504.66 447.87 504.66C448.668 504.66 449.571 504.782 450.58 505.026C451.605 505.254 452.541 505.572 453.388 505.979L453.412 507.639C452.598 507.199 451.679 506.849 450.653 506.589C449.628 506.312 448.733 506.174 447.968 506.174C447.105 506.174 446.308 506.353 445.575 506.711C444.843 507.053 444.257 507.533 443.817 508.151C443.394 508.754 443.183 509.429 443.183 510.178C443.183 510.878 443.345 511.496 443.671 512.033C443.996 512.554 444.517 513.067 445.233 513.571C445.95 514.06 446.942 514.605 448.212 515.207C449.84 515.972 451.133 516.704 452.094 517.404C453.054 518.104 453.746 518.828 454.169 519.577C454.592 520.326 454.804 521.172 454.804 522.116C454.804 523.402 454.494 524.549 453.876 525.559C453.257 526.551 452.395 527.325 451.288 527.878C450.198 528.431 448.944 528.708 447.528 528.708Z"/>
</mask>
<path d="M84.8672 492.282H73.3438V490.72H98.0508V492.282H86.5518V528H84.8672V492.282Z" fill="#5E5A5A"/>
<path d="M126.801 515.158C126.801 516.086 126.785 516.745 126.752 517.136H107.318C107.335 519.138 107.799 520.912 108.71 522.458C109.638 523.988 110.867 525.176 112.396 526.022C113.943 526.853 115.635 527.268 117.475 527.268C118.614 527.268 119.647 527.146 120.575 526.901C121.519 526.657 122.366 526.34 123.114 525.949C123.879 525.559 124.758 525.046 125.751 524.411L125.702 526.169C124.791 526.69 123.977 527.121 123.261 527.463C122.545 527.788 121.674 528.081 120.648 528.342C119.639 528.618 118.541 528.757 117.353 528.757C115.123 528.757 113.121 528.236 111.347 527.194C109.589 526.136 108.214 524.672 107.221 522.8C106.228 520.912 105.731 518.771 105.731 516.379C105.731 514.1 106.228 512.074 107.221 510.3C108.214 508.509 109.54 507.126 111.2 506.149C112.86 505.157 114.659 504.66 116.596 504.66C118.549 504.66 120.299 505.124 121.845 506.052C123.407 506.963 124.62 508.225 125.482 509.836C126.361 511.431 126.801 513.205 126.801 515.158ZM125.287 515.744C125.336 513.791 124.978 512.09 124.213 510.642C123.448 509.177 122.398 508.062 121.063 507.297C119.729 506.532 118.24 506.149 116.596 506.149C114.822 506.149 113.243 506.564 111.859 507.395C110.476 508.225 109.385 509.372 108.588 510.837C107.79 512.285 107.359 513.921 107.294 515.744H125.287Z" fill="#5E5A5A"/>
<path d="M153.134 528.757C150.92 528.757 148.886 528.228 147.03 527.17C145.191 526.096 143.734 524.639 142.66 522.8C141.602 520.961 141.073 518.934 141.073 516.721C141.073 514.507 141.602 512.481 142.66 510.642C143.734 508.786 145.191 507.329 147.03 506.271C148.886 505.197 150.92 504.66 153.134 504.66C154.517 504.66 155.836 504.88 157.089 505.319C158.342 505.759 159.49 506.385 160.531 507.199L160.556 508.981C159.595 508.086 158.48 507.395 157.211 506.906C155.941 506.402 154.599 506.149 153.183 506.149C151.246 506.149 149.464 506.621 147.836 507.565C146.225 508.493 144.947 509.763 144.003 511.374C143.075 512.985 142.611 514.759 142.611 516.696C142.611 518.649 143.075 520.44 144.003 522.067C144.947 523.679 146.225 524.956 147.836 525.9C149.464 526.828 151.254 527.292 153.207 527.292C154.623 527.292 155.958 527.048 157.211 526.56C158.48 526.055 159.595 525.347 160.556 524.436L160.531 526.242C159.522 527.04 158.391 527.658 157.138 528.098C155.901 528.537 154.566 528.757 153.134 528.757Z" fill="#5E5A5A"/>
<path d="M188.183 504.685C190.917 504.685 192.992 505.49 194.408 507.102C195.824 508.713 196.532 511.236 196.532 514.67V528H194.945V514.646C194.945 511.716 194.359 509.576 193.188 508.225C192.016 506.857 190.258 506.174 187.914 506.174C186.433 506.174 184.936 506.638 183.422 507.565C181.924 508.477 180.655 509.689 179.613 511.203V528H178.051V489.133H179.613V509.372C180.671 507.989 181.973 506.866 183.52 506.003C185.082 505.124 186.636 504.685 188.183 504.685Z" fill="#5E5A5A"/>
<path d="M225.478 504.685C228.212 504.685 230.287 505.49 231.703 507.102C233.119 508.713 233.827 511.228 233.827 514.646V528H232.24V514.621C232.24 511.708 231.654 509.576 230.482 508.225C229.311 506.857 227.553 506.174 225.209 506.174C223.76 506.174 222.279 506.621 220.766 507.517C219.268 508.412 217.982 509.632 216.908 511.179L216.933 528H215.346V505.441H216.811L216.908 508.493V509.348C217.966 507.964 219.268 506.841 220.814 505.979C222.377 505.116 223.931 504.685 225.478 504.685Z" fill="#5E5A5A"/>
<path d="M262.528 528.732C260.299 528.732 258.256 528.203 256.4 527.146C254.545 526.088 253.08 524.639 252.006 522.8C250.948 520.961 250.419 518.934 250.419 516.721C250.419 514.507 250.948 512.481 252.006 510.642C253.08 508.786 254.545 507.329 256.4 506.271C258.256 505.197 260.299 504.66 262.528 504.66C264.758 504.66 266.793 505.197 268.632 506.271C270.487 507.329 271.952 508.786 273.026 510.642C274.101 512.481 274.638 514.507 274.638 516.721C274.638 518.934 274.101 520.961 273.026 522.8C271.952 524.639 270.487 526.088 268.632 527.146C266.793 528.203 264.758 528.732 262.528 528.732ZM262.553 527.243C264.473 527.243 266.231 526.779 267.826 525.852C269.438 524.924 270.707 523.654 271.635 522.043C272.579 520.432 273.051 518.658 273.051 516.721C273.051 514.784 272.579 513.01 271.635 511.398C270.707 509.771 269.438 508.493 267.826 507.565C266.231 506.621 264.465 506.149 262.528 506.149C260.591 506.149 258.817 506.621 257.206 507.565C255.595 508.493 254.317 509.771 253.373 511.398C252.445 513.01 251.981 514.784 251.981 516.721C251.981 518.674 252.445 520.456 253.373 522.067C254.317 523.662 255.595 524.924 257.206 525.852C258.834 526.779 260.616 527.243 262.553 527.243Z" fill="#5E5A5A"/>
<path d="M291.498 489.133H293.061V528H291.498V489.133Z" fill="#5E5A5A"/>
<path d="M322.03 528.732C319.8 528.732 317.758 528.203 315.902 527.146C314.047 526.088 312.582 524.639 311.508 522.8C310.45 520.961 309.921 518.934 309.921 516.721C309.921 514.507 310.45 512.481 311.508 510.642C312.582 508.786 314.047 507.329 315.902 506.271C317.758 505.197 319.8 504.66 322.03 504.66C324.26 504.66 326.295 505.197 328.134 506.271C329.989 507.329 331.454 508.786 332.528 510.642C333.603 512.481 334.14 514.507 334.14 516.721C334.14 518.934 333.603 520.961 332.528 522.8C331.454 524.639 329.989 526.088 328.134 527.146C326.295 528.203 324.26 528.732 322.03 528.732ZM322.055 527.243C323.975 527.243 325.733 526.779 327.328 525.852C328.939 524.924 330.209 523.654 331.137 522.043C332.081 520.432 332.553 518.658 332.553 516.721C332.553 514.784 332.081 513.01 331.137 511.398C330.209 509.771 328.939 508.493 327.328 507.565C325.733 506.621 323.967 506.149 322.03 506.149C320.093 506.149 318.319 506.621 316.708 507.565C315.097 508.493 313.819 509.771 312.875 511.398C311.947 513.01 311.483 514.784 311.483 516.721C311.483 518.674 311.947 520.456 312.875 522.067C313.819 523.662 315.097 524.924 316.708 525.852C318.336 526.779 320.118 527.243 322.055 527.243Z" fill="#5E5A5A"/>
<path d="M364.77 526.071C366.169 526.071 367.357 526.324 368.334 526.828C369.311 527.316 370.035 527.976 370.507 528.806C370.995 529.636 371.239 530.555 371.239 531.564C371.239 533.046 370.661 534.405 369.506 535.642C368.367 536.879 366.828 537.855 364.892 538.571C362.955 539.304 360.871 539.67 358.642 539.67C356.672 539.67 354.931 539.41 353.417 538.889C351.903 538.384 350.723 537.635 349.877 536.643C349.031 535.666 348.607 534.494 348.607 533.127C348.607 532.232 348.974 531.32 349.706 530.393C350.438 529.481 351.48 528.48 352.831 527.39C351.692 527.097 350.927 526.519 350.536 525.656C350.146 524.794 349.966 523.874 349.999 522.897L353.49 519.553C352.481 518.788 351.7 517.852 351.146 516.745C350.593 515.638 350.316 514.426 350.316 513.107C350.316 511.496 350.715 510.048 351.513 508.762C352.31 507.476 353.401 506.475 354.784 505.759C356.184 505.026 357.73 504.66 359.423 504.66C360.855 504.66 362.19 504.921 363.427 505.441H370.385V506.809L365.624 506.784C366.552 507.549 367.276 508.485 367.797 509.592C368.318 510.682 368.578 511.879 368.578 513.181C368.578 514.743 368.179 516.159 367.382 517.429C366.584 518.698 365.494 519.699 364.11 520.432C362.727 521.148 361.189 521.506 359.496 521.506C357.673 521.506 356.037 521.099 354.589 520.285L351.562 523.264C351.562 524.029 351.741 524.688 352.099 525.241C352.473 525.795 353.238 526.071 354.394 526.071H364.77ZM351.854 513.059C351.854 514.442 352.188 515.663 352.855 516.721C353.523 517.779 354.434 518.601 355.59 519.187C356.745 519.772 358.031 520.065 359.447 520.065C360.88 520.065 362.173 519.772 363.329 519.187C364.485 518.601 365.388 517.787 366.039 516.745C366.706 515.687 367.04 514.475 367.04 513.107C367.04 511.724 366.706 510.503 366.039 509.445C365.388 508.387 364.485 507.574 363.329 507.004C362.173 506.418 360.88 506.125 359.447 506.125C358.031 506.125 356.745 506.418 355.59 507.004C354.434 507.574 353.523 508.387 352.855 509.445C352.188 510.487 351.854 511.691 351.854 513.059ZM358.666 538.205C360.57 538.205 362.361 537.92 364.037 537.351C365.73 536.781 367.089 536 368.114 535.007C369.14 534.03 369.652 532.948 369.652 531.76C369.652 530.474 369.229 529.449 368.383 528.684C367.536 527.935 366.299 527.561 364.672 527.561H354.491C353.531 528.342 352.758 529.009 352.172 529.562C351.586 530.132 351.106 530.718 350.731 531.32C350.373 531.939 350.194 532.574 350.194 533.225C350.194 534.234 350.544 535.113 351.244 535.861C351.944 536.61 352.929 537.188 354.198 537.595C355.484 538.002 356.973 538.205 358.666 538.205Z" fill="#5E5A5A"/>
<path d="M386.635 505.441H388.197V528H386.635V505.441ZM387.416 499.045C386.911 499.045 386.48 498.874 386.122 498.532C385.78 498.19 385.609 497.775 385.609 497.287C385.609 496.783 385.78 496.359 386.122 496.018C386.48 495.66 386.911 495.48 387.416 495.48C387.921 495.48 388.352 495.66 388.71 496.018C389.068 496.359 389.247 496.783 389.247 497.287C389.247 497.775 389.068 498.19 388.71 498.532C388.352 498.874 387.921 499.045 387.416 499.045Z" fill="#5E5A5A"/>
<path d="M426.127 515.158C426.127 516.086 426.111 516.745 426.078 517.136H406.645C406.661 519.138 407.125 520.912 408.036 522.458C408.964 523.988 410.193 525.176 411.723 526.022C413.269 526.853 414.962 527.268 416.801 527.268C417.94 527.268 418.974 527.146 419.901 526.901C420.845 526.657 421.692 526.34 422.44 525.949C423.205 525.559 424.084 525.046 425.077 524.411L425.028 526.169C424.117 526.69 423.303 527.121 422.587 527.463C421.871 527.788 421 528.081 419.975 528.342C418.965 528.618 417.867 528.757 416.679 528.757C414.449 528.757 412.447 528.236 410.673 527.194C408.915 526.136 407.54 524.672 406.547 522.8C405.554 520.912 405.058 518.771 405.058 516.379C405.058 514.1 405.554 512.074 406.547 510.3C407.54 508.509 408.866 507.126 410.526 506.149C412.187 505.157 413.985 504.66 415.922 504.66C417.875 504.66 419.625 505.124 421.171 506.052C422.733 506.963 423.946 508.225 424.809 509.836C425.688 511.431 426.127 513.205 426.127 515.158ZM424.613 515.744C424.662 513.791 424.304 512.09 423.539 510.642C422.774 509.177 421.724 508.062 420.39 507.297C419.055 506.532 417.566 506.149 415.922 506.149C414.148 506.149 412.569 506.564 411.186 507.395C409.802 508.225 408.712 509.372 407.914 510.837C407.117 512.285 406.685 513.921 406.62 515.744H424.613Z" fill="#5E5A5A"/>
<path d="M447.528 528.708C446.324 528.708 445.103 528.537 443.866 528.195C442.646 527.87 441.588 527.43 440.692 526.877L440.644 525.192C441.636 525.795 442.743 526.283 443.964 526.657C445.185 527.032 446.324 527.219 447.382 527.219C448.521 527.219 449.53 527.015 450.409 526.608C451.304 526.185 451.996 525.599 452.484 524.851C452.989 524.086 453.241 523.207 453.241 522.214C453.241 521.449 453.062 520.773 452.704 520.188C452.346 519.602 451.752 519.032 450.922 518.479C450.092 517.909 448.936 517.282 447.455 516.599C446.023 515.915 444.883 515.264 444.037 514.646C443.207 514.027 442.597 513.36 442.206 512.644C441.815 511.927 441.62 511.105 441.62 510.178C441.62 509.12 441.881 508.176 442.401 507.346C442.938 506.499 443.679 505.84 444.623 505.368C445.567 504.896 446.649 504.66 447.87 504.66C448.668 504.66 449.571 504.782 450.58 505.026C451.605 505.254 452.541 505.572 453.388 505.979L453.412 507.639C452.598 507.199 451.679 506.849 450.653 506.589C449.628 506.312 448.733 506.174 447.968 506.174C447.105 506.174 446.308 506.353 445.575 506.711C444.843 507.053 444.257 507.533 443.817 508.151C443.394 508.754 443.183 509.429 443.183 510.178C443.183 510.878 443.345 511.496 443.671 512.033C443.996 512.554 444.517 513.067 445.233 513.571C445.95 514.06 446.942 514.605 448.212 515.207C449.84 515.972 451.133 516.704 452.094 517.404C453.054 518.104 453.746 518.828 454.169 519.577C454.592 520.326 454.804 521.172 454.804 522.116C454.804 523.402 454.494 524.549 453.876 525.559C453.257 526.551 452.395 527.325 451.288 527.878C450.198 528.431 448.944 528.708 447.528 528.708Z" fill="#5E5A5A"/>
<path d="M84.8672 492.282H73.3438V490.72H98.0508V492.282H86.5518V528H84.8672V492.282Z" stroke="#5E5A5A" stroke-width="4" mask="url(#path-15-outside-1_249_562)"/>
<path d="M126.801 515.158C126.801 516.086 126.785 516.745 126.752 517.136H107.318C107.335 519.138 107.799 520.912 108.71 522.458C109.638 523.988 110.867 525.176 112.396 526.022C113.943 526.853 115.635 527.268 117.475 527.268C118.614 527.268 119.647 527.146 120.575 526.901C121.519 526.657 122.366 526.34 123.114 525.949C123.879 525.559 124.758 525.046 125.751 524.411L125.702 526.169C124.791 526.69 123.977 527.121 123.261 527.463C122.545 527.788 121.674 528.081 120.648 528.342C119.639 528.618 118.541 528.757 117.353 528.757C115.123 528.757 113.121 528.236 111.347 527.194C109.589 526.136 108.214 524.672 107.221 522.8C106.228 520.912 105.731 518.771 105.731 516.379C105.731 514.1 106.228 512.074 107.221 510.3C108.214 508.509 109.54 507.126 111.2 506.149C112.86 505.157 114.659 504.66 116.596 504.66C118.549 504.66 120.299 505.124 121.845 506.052C123.407 506.963 124.62 508.225 125.482 509.836C126.361 511.431 126.801 513.205 126.801 515.158ZM125.287 515.744C125.336 513.791 124.978 512.09 124.213 510.642C123.448 509.177 122.398 508.062 121.063 507.297C119.729 506.532 118.24 506.149 116.596 506.149C114.822 506.149 113.243 506.564 111.859 507.395C110.476 508.225 109.385 509.372 108.588 510.837C107.79 512.285 107.359 513.921 107.294 515.744H125.287Z" stroke="#5E5A5A" stroke-width="4" mask="url(#path-15-outside-1_249_562)"/>
<path d="M153.134 528.757C150.92 528.757 148.886 528.228 147.03 527.17C145.191 526.096 143.734 524.639 142.66 522.8C141.602 520.961 141.073 518.934 141.073 516.721C141.073 514.507 141.602 512.481 142.66 510.642C143.734 508.786 145.191 507.329 147.03 506.271C148.886 505.197 150.92 504.66 153.134 504.66C154.517 504.66 155.836 504.88 157.089 505.319C158.342 505.759 159.49 506.385 160.531 507.199L160.556 508.981C159.595 508.086 158.48 507.395 157.211 506.906C155.941 506.402 154.599 506.149 153.183 506.149C151.246 506.149 149.464 506.621 147.836 507.565C146.225 508.493 144.947 509.763 144.003 511.374C143.075 512.985 142.611 514.759 142.611 516.696C142.611 518.649 143.075 520.44 144.003 522.067C144.947 523.679 146.225 524.956 147.836 525.9C149.464 526.828 151.254 527.292 153.207 527.292C154.623 527.292 155.958 527.048 157.211 526.56C158.48 526.055 159.595 525.347 160.556 524.436L160.531 526.242C159.522 527.04 158.391 527.658 157.138 528.098C155.901 528.537 154.566 528.757 153.134 528.757Z" stroke="#5E5A5A" stroke-width="4" mask="url(#path-15-outside-1_249_562)"/>
<path d="M188.183 504.685C190.917 504.685 192.992 505.49 194.408 507.102C195.824 508.713 196.532 511.236 196.532 514.67V528H194.945V514.646C194.945 511.716 194.359 509.576 193.188 508.225C192.016 506.857 190.258 506.174 187.914 506.174C186.433 506.174 184.936 506.638 183.422 507.565C181.924 508.477 180.655 509.689 179.613 511.203V528H178.051V489.133H179.613V509.372C180.671 507.989 181.973 506.866 183.52 506.003C185.082 505.124 186.636 504.685 188.183 504.685Z" stroke="#5E5A5A" stroke-width="4" mask="url(#path-15-outside-1_249_562)"/>
<path d="M225.478 504.685C228.212 504.685 230.287 505.49 231.703 507.102C233.119 508.713 233.827 511.228 233.827 514.646V528H232.24V514.621C232.24 511.708 231.654 509.576 230.482 508.225C229.311 506.857 227.553 506.174 225.209 506.174C223.76 506.174 222.279 506.621 220.766 507.517C219.268 508.412 217.982 509.632 216.908 511.179L216.933 528H215.346V505.441H216.811L216.908 508.493V509.348C217.966 507.964 219.268 506.841 220.814 505.979C222.377 505.116 223.931 504.685 225.478 504.685Z" stroke="#5E5A5A" stroke-width="4" mask="url(#path-15-outside-1_249_562)"/>
<path d="M262.528 528.732C260.299 528.732 258.256 528.203 256.4 527.146C254.545 526.088 253.08 524.639 252.006 522.8C250.948 520.961 250.419 518.934 250.419 516.721C250.419 514.507 250.948 512.481 252.006 510.642C253.08 508.786 254.545 507.329 256.4 506.271C258.256 505.197 260.299 504.66 262.528 504.66C264.758 504.66 266.793 505.197 268.632 506.271C270.487 507.329 271.952 508.786 273.026 510.642C274.101 512.481 274.638 514.507 274.638 516.721C274.638 518.934 274.101 520.961 273.026 522.8C271.952 524.639 270.487 526.088 268.632 527.146C266.793 528.203 264.758 528.732 262.528 528.732ZM262.553 527.243C264.473 527.243 266.231 526.779 267.826 525.852C269.438 524.924 270.707 523.654 271.635 522.043C272.579 520.432 273.051 518.658 273.051 516.721C273.051 514.784 272.579 513.01 271.635 511.398C270.707 509.771 269.438 508.493 267.826 507.565C266.231 506.621 264.465 506.149 262.528 506.149C260.591 506.149 258.817 506.621 257.206 507.565C255.595 508.493 254.317 509.771 253.373 511.398C252.445 513.01 251.981 514.784 251.981 516.721C251.981 518.674 252.445 520.456 253.373 522.067C254.317 523.662 255.595 524.924 257.206 525.852C258.834 526.779 260.616 527.243 262.553 527.243Z" stroke="#5E5A5A" stroke-width="4" mask="url(#path-15-outside-1_249_562)"/>
<path d="M291.498 489.133H293.061V528H291.498V489.133Z" stroke="#5E5A5A" stroke-width="4" mask="url(#path-15-outside-1_249_562)"/>
<path d="M322.03 528.732C319.8 528.732 317.758 528.203 315.902 527.146C314.047 526.088 312.582 524.639 311.508 522.8C310.45 520.961 309.921 518.934 309.921 516.721C309.921 514.507 310.45 512.481 311.508 510.642C312.582 508.786 314.047 507.329 315.902 506.271C317.758 505.197 319.8 504.66 322.03 504.66C324.26 504.66 326.295 505.197 328.134 506.271C329.989 507.329 331.454 508.786 332.528 510.642C333.603 512.481 334.14 514.507 334.14 516.721C334.14 518.934 333.603 520.961 332.528 522.8C331.454 524.639 329.989 526.088 328.134 527.146C326.295 528.203 324.26 528.732 322.03 528.732ZM322.055 527.243C323.975 527.243 325.733 526.779 327.328 525.852C328.939 524.924 330.209 523.654 331.137 522.043C332.081 520.432 332.553 518.658 332.553 516.721C332.553 514.784 332.081 513.01 331.137 511.398C330.209 509.771 328.939 508.493 327.328 507.565C325.733 506.621 323.967 506.149 322.03 506.149C320.093 506.149 318.319 506.621 316.708 507.565C315.097 508.493 313.819 509.771 312.875 511.398C311.947 513.01 311.483 514.784 311.483 516.721C311.483 518.674 311.947 520.456 312.875 522.067C313.819 523.662 315.097 524.924 316.708 525.852C318.336 526.779 320.118 527.243 322.055 527.243Z" stroke="#5E5A5A" stroke-width="4" mask="url(#path-15-outside-1_249_562)"/>
<path d="M364.77 526.071C366.169 526.071 367.357 526.324 368.334 526.828C369.311 527.316 370.035 527.976 370.507 528.806C370.995 529.636 371.239 530.555 371.239 531.564C371.239 533.046 370.661 534.405 369.506 535.642C368.367 536.879 366.828 537.855 364.892 538.571C362.955 539.304 360.871 539.67 358.642 539.67C356.672 539.67 354.931 539.41 353.417 538.889C351.903 538.384 350.723 537.635 349.877 536.643C349.031 535.666 348.607 534.494 348.607 533.127C348.607 532.232 348.974 531.32 349.706 530.393C350.438 529.481 351.48 528.48 352.831 527.39C351.692 527.097 350.927 526.519 350.536 525.656C350.146 524.794 349.966 523.874 349.999 522.897L353.49 519.553C352.481 518.788 351.7 517.852 351.146 516.745C350.593 515.638 350.316 514.426 350.316 513.107C350.316 511.496 350.715 510.048 351.513 508.762C352.31 507.476 353.401 506.475 354.784 505.759C356.184 505.026 357.73 504.66 359.423 504.66C360.855 504.66 362.19 504.921 363.427 505.441H370.385V506.809L365.624 506.784C366.552 507.549 367.276 508.485 367.797 509.592C368.318 510.682 368.578 511.879 368.578 513.181C368.578 514.743 368.179 516.159 367.382 517.429C366.584 518.698 365.494 519.699 364.11 520.432C362.727 521.148 361.189 521.506 359.496 521.506C357.673 521.506 356.037 521.099 354.589 520.285L351.562 523.264C351.562 524.029 351.741 524.688 352.099 525.241C352.473 525.795 353.238 526.071 354.394 526.071H364.77ZM351.854 513.059C351.854 514.442 352.188 515.663 352.855 516.721C353.523 517.779 354.434 518.601 355.59 519.187C356.745 519.772 358.031 520.065 359.447 520.065C360.88 520.065 362.173 519.772 363.329 519.187C364.485 518.601 365.388 517.787 366.039 516.745C366.706 515.687 367.04 514.475 367.04 513.107C367.04 511.724 366.706 510.503 366.039 509.445C365.388 508.387 364.485 507.574 363.329 507.004C362.173 506.418 360.88 506.125 359.447 506.125C358.031 506.125 356.745 506.418 355.59 507.004C354.434 507.574 353.523 508.387 352.855 509.445C352.188 510.487 351.854 511.691 351.854 513.059ZM358.666 538.205C360.57 538.205 362.361 537.92 364.037 537.351C365.73 536.781 367.089 536 368.114 535.007C369.14 534.03 369.652 532.948 369.652 531.76C369.652 530.474 369.229 529.449 368.383 528.684C367.536 527.935 366.299 527.561 364.672 527.561H354.491C353.531 528.342 352.758 529.009 352.172 529.562C351.586 530.132 351.106 530.718 350.731 531.32C350.373 531.939 350.194 532.574 350.194 533.225C350.194 534.234 350.544 535.113 351.244 535.861C351.944 536.61 352.929 537.188 354.198 537.595C355.484 538.002 356.973 538.205 358.666 538.205Z" stroke="#5E5A5A" stroke-width="4" mask="url(#path-15-outside-1_249_562)"/>
<path d="M386.635 505.441H388.197V528H386.635V505.441ZM387.416 499.045C386.911 499.045 386.48 498.874 386.122 498.532C385.78 498.19 385.609 497.775 385.609 497.287C385.609 496.783 385.78 496.359 386.122 496.018C386.48 495.66 386.911 495.48 387.416 495.48C387.921 495.48 388.352 495.66 388.71 496.018C389.068 496.359 389.247 496.783 389.247 497.287C389.247 497.775 389.068 498.19 388.71 498.532C388.352 498.874 387.921 499.045 387.416 499.045Z" stroke="#5E5A5A" stroke-width="4" mask="url(#path-15-outside-1_249_562)"/>
<path d="M426.127 515.158C426.127 516.086 426.111 516.745 426.078 517.136H406.645C406.661 519.138 407.125 520.912 408.036 522.458C408.964 523.988 410.193 525.176 411.723 526.022C413.269 526.853 414.962 527.268 416.801 527.268C417.94 527.268 418.974 527.146 419.901 526.901C420.845 526.657 421.692 526.34 422.44 525.949C423.205 525.559 424.084 525.046 425.077 524.411L425.028 526.169C424.117 526.69 423.303 527.121 422.587 527.463C421.871 527.788 421 528.081 419.975 528.342C418.965 528.618 417.867 528.757 416.679 528.757C414.449 528.757 412.447 528.236 410.673 527.194C408.915 526.136 407.54 524.672 406.547 522.8C405.554 520.912 405.058 518.771 405.058 516.379C405.058 514.1 405.554 512.074 406.547 510.3C407.54 508.509 408.866 507.126 410.526 506.149C412.187 505.157 413.985 504.66 415.922 504.66C417.875 504.66 419.625 505.124 421.171 506.052C422.733 506.963 423.946 508.225 424.809 509.836C425.688 511.431 426.127 513.205 426.127 515.158ZM424.613 515.744C424.662 513.791 424.304 512.09 423.539 510.642C422.774 509.177 421.724 508.062 420.39 507.297C419.055 506.532 417.566 506.149 415.922 506.149C414.148 506.149 412.569 506.564 411.186 507.395C409.802 508.225 408.712 509.372 407.914 510.837C407.117 512.285 406.685 513.921 406.62 515.744H424.613Z" stroke="#5E5A5A" stroke-width="4" mask="url(#path-15-outside-1_249_562)"/>
<path d="M447.528 528.708C446.324 528.708 445.103 528.537 443.866 528.195C442.646 527.87 441.588 527.43 440.692 526.877L440.644 525.192C441.636 525.795 442.743 526.283 443.964 526.657C445.185 527.032 446.324 527.219 447.382 527.219C448.521 527.219 449.53 527.015 450.409 526.608C451.304 526.185 451.996 525.599 452.484 524.851C452.989 524.086 453.241 523.207 453.241 522.214C453.241 521.449 453.062 520.773 452.704 520.188C452.346 519.602 451.752 519.032 450.922 518.479C450.092 517.909 448.936 517.282 447.455 516.599C446.023 515.915 444.883 515.264 444.037 514.646C443.207 514.027 442.597 513.36 442.206 512.644C441.815 511.927 441.62 511.105 441.62 510.178C441.62 509.12 441.881 508.176 442.401 507.346C442.938 506.499 443.679 505.84 444.623 505.368C445.567 504.896 446.649 504.66 447.87 504.66C448.668 504.66 449.571 504.782 450.58 505.026C451.605 505.254 452.541 505.572 453.388 505.979L453.412 507.639C452.598 507.199 451.679 506.849 450.653 506.589C449.628 506.312 448.733 506.174 447.968 506.174C447.105 506.174 446.308 506.353 445.575 506.711C444.843 507.053 444.257 507.533 443.817 508.151C443.394 508.754 443.183 509.429 443.183 510.178C443.183 510.878 443.345 511.496 443.671 512.033C443.996 512.554 444.517 513.067 445.233 513.571C445.95 514.06 446.942 514.605 448.212 515.207C449.84 515.972 451.133 516.704 452.094 517.404C453.054 518.104 453.746 518.828 454.169 519.577C454.592 520.326 454.804 521.172 454.804 522.116C454.804 523.402 454.494 524.549 453.876 525.559C453.257 526.551 452.395 527.325 451.288 527.878C450.198 528.431 448.944 528.708 447.528 528.708Z" stroke="#5E5A5A" stroke-width="4" mask="url(#path-15-outside-1_249_562)"/>
<defs>
<linearGradient id="paint0_linear_249_562" x1="416.063" y1="150" x2="116.063" y2="150" gradientUnits="userSpaceOnUse">
<stop stop-color="#35029C"/>
<stop offset="0.2578" stop-color="#38049E"/>
<stop offset="0.4268" stop-color="#4009A5"/>
<stop offset="0.5704" stop-color="#4F13B0"/>
<stop offset="0.6997" stop-color="#6520BF"/>
<stop offset="0.8194" stop-color="#8031D4"/>
<stop offset="0.9305" stop-color="#A145EC"/>
<stop offset="1" stop-color="#BA55FF"/>
</linearGradient>
<linearGradient id="paint1_linear_249_562" x1="114.316" y1="85.5988" x2="204.115" y2="235.281" gradientUnits="userSpaceOnUse">
<stop stop-color="#CE6DFE"/>
<stop offset="0.238141" stop-color="#C664F8"/>
<stop offset="0.519194" stop-color="#B44FEB"/>
<stop offset="0.752618" stop-color="#9A38DC"/>
<stop offset="1" stop-color="#721FCC"/>
</linearGradient>
<linearGradient id="paint2_linear_249_562" x1="352.803" y1="287.234" x2="311.464" y2="48.0594" gradientUnits="userSpaceOnUse">
<stop stop-color="#64EBEC"/>
<stop offset="0.1103" stop-color="#5CC5E2"/>
<stop offset="0.2592" stop-color="#5298D7"/>
<stop offset="0.4093" stop-color="#4A73CD"/>
<stop offset="0.5585" stop-color="#4356C6"/>
<stop offset="0.7064" stop-color="#3F41C0"/>
<stop offset="0.8525" stop-color="#3C35BD"/>
<stop offset="0.9947" stop-color="#3B31BC"/>
</linearGradient>
<linearGradient id="paint3_linear_249_562" x1="326.184" y1="75.3633" x2="326.184" y2="299.016" gradientUnits="userSpaceOnUse">
<stop stop-color="#514FD2"/>
<stop offset="0.500752" stop-color="#63A5DE"/>
<stop offset="1" stop-color="#80EBF0"/>
</linearGradient>
<linearGradient id="paint4_linear_249_562" x1="193.953" y1="229.563" x2="135.884" y2="1.21885" gradientUnits="userSpaceOnUse">
<stop stop-color="#FCED00"/>
<stop offset="0.1374" stop-color="#FAC90D"/>
<stop offset="0.3352" stop-color="#F89C1E"/>
<stop offset="0.5255" stop-color="#F6792B"/>
<stop offset="0.7037" stop-color="#F56034"/>
<stop offset="0.865" stop-color="#F4503A"/>
<stop offset="0.9947" stop-color="#F44C3C"/>
</linearGradient>
<linearGradient id="paint5_linear_249_562" x1="129.164" y1="-0.00164997" x2="196.421" y2="192.159" gradientUnits="userSpaceOnUse">
<stop stop-color="#F7624E"/>
<stop offset="1" stop-color="#FCD714"/>
</linearGradient>
<linearGradient id="paint6_linear_249_562" x1="346.889" y1="19.2908" x2="183.502" y2="129.527" gradientUnits="userSpaceOnUse">
<stop stop-color="#993EFF"/>
<stop offset="0.143" stop-color="#9B3EFB"/>
<stop offset="0.2865" stop-color="#A03FEF"/>
<stop offset="0.4303" stop-color="#AA40DB"/>
<stop offset="0.5743" stop-color="#B742BF"/>
<stop offset="0.7186" stop-color="#C8459A"/>
<stop offset="0.8612" stop-color="#DD486E"/>
<stop offset="1" stop-color="#F44B3C"/>
</linearGradient>
<linearGradient id="paint7_linear_249_562" x1="243.2" y1="0.125" x2="182.445" y2="113.55" gradientUnits="userSpaceOnUse">
<stop stop-color="#8022F3"/>
<stop offset="1" stop-color="#BE2850"/>
</linearGradient>
<linearGradient id="paint8_linear_249_562" x1="389.455" y1="61.1419" x2="226.118" y2="75.9907" gradientUnits="userSpaceOnUse">
<stop stop-color="#B851FF"/>
<stop offset="0.474928" stop-color="#BD52F4"/>
<stop offset="1" stop-color="white" stop-opacity="0"/>
</linearGradient>
<linearGradient id="paint9_linear_249_562" x1="182.063" y1="335" x2="168.063" y2="374" gradientUnits="userSpaceOnUse">
<stop stop-color="#4B78CE"/>
<stop offset="0.529703" stop-color="#BE55F4"/>
<stop offset="1" stop-color="#5014B1"/>
</linearGradient>
</defs>
</svg>
