<svg width="256" height="256" viewBox="0 0 256 256" fill="none" xmlns="http://www.w3.org/2000/svg">
<path d="M0 138.825C0 197.411 60.9548 256 127.998 256C201.397 256 260.366 194.221 255.746 119.827C251.717 54.9938 198.165 2.7045 133.26 0.106206C104.789 -1.03865 78.2752 7.13039 56.5199 21.8034C56.5199 11.4415 48.1198 3.0414 37.7535 3.0414H0.00148988C0.00148988 3.0414 0 80.2389 0 138.825ZM127.998 56.5158C167.477 56.5158 199.48 88.5227 199.48 127.998C199.48 167.478 167.477 199.48 127.998 199.48C88.5223 199.48 56.5185 167.478 56.5185 127.998C56.5185 88.5227 88.5223 56.5158 127.998 56.5158Z" fill="url(#paint0_linear_249_443)"/>
<path d="M0 47.9102C0 67.9884 0 87.0903 0 110.552C8.27786 130.874 23.0939 155.74 48.0692 174.981C101.09 215.826 150.276 195.926 150.276 195.926L150.251 195.901C143.241 198.197 135.775 199.48 127.996 199.48C88.5208 199.48 56.517 167.478 56.517 127.998C56.517 120.598 57.6439 113.459 59.7279 106.741L0 47.9102Z" fill="url(#paint1_linear_249_443)"/>
<path d="M211.654 224.87C228.437 199.597 233.583 163.364 199.48 114.16C199.48 114.16 215.635 192.218 165.428 225.498C137.152 244.242 106.186 248.07 84.5244 247.833C98.303 253.044 112.997 255.997 127.999 255.997C159.984 255.999 189.219 244.261 211.654 224.87Z" fill="#35029C"/>
<path d="M94.71 64.7371L94.7442 64.752C104.683 59.5137 115.985 56.5174 127.997 56.5174C158.188 56.5174 183.951 75.2614 194.429 101.723L194.481 101.744C194.481 101.744 218.912 151.196 200.831 193.189C185.067 229.795 164.901 246.624 142.566 255.159C209.021 247.63 260.057 189.229 255.743 119.829C254.735 103.612 250.628 88.1784 244.023 74.1121C228.283 59.0695 209.679 48.4586 190.674 44.6111C119.706 30.2423 94.71 64.7371 94.71 64.7371Z" fill="url(#paint2_linear_249_443)"/>
<path d="M94.71 64.7379L94.7442 64.7529C97.7942 63.1459 100.986 61.7804 104.276 60.6191C120.085 51.9656 144.401 47.5964 180.388 56.5182C216.339 65.4371 242.097 90.3929 253.774 104.328C251.781 93.7545 248.488 83.6162 244.022 74.1115C228.281 59.0688 209.677 48.458 190.672 44.6105C119.706 30.2431 94.71 64.7379 94.71 64.7379Z" fill="#022C90"/>
<path d="M194.429 101.722L194.481 101.743C194.481 101.743 218.912 151.196 200.831 193.189C185.067 229.794 164.901 246.623 142.566 255.159C153.532 253.915 164.066 251.262 174.014 247.428C208.926 224.528 222.711 185.919 213.019 138.85C200.527 78.1572 160.465 64.3086 160.465 64.3086C160.465 64.3086 160.454 64.3399 160.451 64.3429C175.843 72.2272 188.008 85.5153 194.429 101.722Z" fill="url(#paint3_linear_249_443)"/>
<path d="M101.11 194.239L101.081 194.197C74.9554 183.561 56.5184 157.951 56.5184 128.001C56.5184 127.083 56.6198 126.182 56.6556 125.27L56.5184 125.055V21.8049C56.5184 11.4431 48.1183 3.04297 37.752 3.04297H0C0 3.04297 0 34.4446 0 72.3889C27.338 183.407 101.11 194.239 101.11 194.239Z" fill="url(#paint4_linear_249_443)"/>
<path opacity="0.5" d="M101.11 194.239L101.081 194.197C57.8109 181.848 14.3092 111.268 0 40.1289C0 49.7991 0 60.7811 0 72.3892C27.338 183.408 101.11 194.239 101.11 194.239Z" fill="#F44B3C"/>
<path d="M46.5009 102.72C51.0923 150.934 63.7617 164.459 67.815 167.61C68.611 168.232 69.0791 168.447 69.0791 168.447V168.444C61.159 156.946 56.5199 143.021 56.5199 128.001C56.5199 127.083 56.6213 126.182 56.6571 125.27L56.5199 125.055V21.8049C56.5199 11.4431 48.1198 3.04297 37.7535 3.04297H0.00146484C20.6581 11.7621 41.0002 44.9838 46.5009 102.72Z" fill="url(#paint5_linear_249_443)"/>
<path d="M56.5186 125.052L56.6557 125.266C56.6482 125.457 56.6378 125.649 56.6274 125.843C57.4204 99.2982 72.6271 76.404 94.7446 64.7512L94.7103 64.7363C94.7103 64.7363 119.706 30.2415 190.674 44.6089C209.679 48.4564 228.283 59.0672 244.023 74.1098C244.726 75.605 212.456 0.105469 133.261 0.105469C104.765 0.105469 78.2768 7.12965 56.5215 21.8026V125.052H56.5186Z" fill="url(#paint6_linear_249_443)"/>
<path d="M160.464 3.27917C152.092 1.26375 143.036 0.105469 133.258 0.105469C104.762 0.105469 78.2738 7.12965 56.5186 21.8026V125.053L56.6557 125.268C56.6482 125.459 56.6378 125.651 56.6274 125.845C56.93 115.735 59.333 106.166 63.3981 97.5377C63.5278 78.3583 67.6988 42.4205 94.7088 20.5415C115.105 4.02452 140.873 1.78549 160.464 3.27917Z" fill="url(#paint7_linear_249_443)"/>
<path d="M93.4536 65.489C93.8859 65.2505 94.3063 64.9836 94.7446 64.7526L94.7103 64.7377C94.7103 64.7377 119.706 30.2428 190.674 44.6102C209.679 48.4577 228.283 59.0685 244.023 74.1112C244.381 74.8685 236.217 55.7875 217.753 36.8109C199.535 29.7569 173.801 26.1255 146.649 32.8083C109.604 41.9284 97.3786 56.746 93.4536 65.489Z" fill="url(#paint8_linear_249_443)"/>
<defs>
<linearGradient id="paint0_linear_249_443" x1="256" y1="128" x2="0.000457763" y2="128" gradientUnits="userSpaceOnUse">
<stop stop-color="#35029C"/>
<stop offset="0.2578" stop-color="#38049E"/>
<stop offset="0.4268" stop-color="#4009A5"/>
<stop offset="0.5704" stop-color="#4F13B0"/>
<stop offset="0.6997" stop-color="#6520BF"/>
<stop offset="0.8194" stop-color="#8031D4"/>
<stop offset="0.9305" stop-color="#A145EC"/>
<stop offset="1" stop-color="#BA55FF"/>
</linearGradient>
<linearGradient id="paint1_linear_249_443" x1="-1.4907" y1="73.0445" x2="75.138" y2="200.773" gradientUnits="userSpaceOnUse">
<stop stop-color="#CE6DFE"/>
<stop offset="0.238141" stop-color="#C664F8"/>
<stop offset="0.519194" stop-color="#B44FEB"/>
<stop offset="0.752618" stop-color="#9A38DC"/>
<stop offset="1" stop-color="#721FCC"/>
</linearGradient>
<linearGradient id="paint2_linear_249_443" x1="202.019" y1="245.106" x2="166.743" y2="41.01" gradientUnits="userSpaceOnUse">
<stop stop-color="#64EBEC"/>
<stop offset="0.1103" stop-color="#5CC5E2"/>
<stop offset="0.2592" stop-color="#5298D7"/>
<stop offset="0.4093" stop-color="#4A73CD"/>
<stop offset="0.5585" stop-color="#4356C6"/>
<stop offset="0.7064" stop-color="#3F41C0"/>
<stop offset="0.8525" stop-color="#3C35BD"/>
<stop offset="0.9947" stop-color="#3B31BC"/>
</linearGradient>
<linearGradient id="paint3_linear_249_443" x1="179.303" y1="64.3086" x2="179.303" y2="255.159" gradientUnits="userSpaceOnUse">
<stop stop-color="#514FD2"/>
<stop offset="0.500752" stop-color="#63A5DE"/>
<stop offset="1" stop-color="#80EBF0"/>
</linearGradient>
<linearGradient id="paint4_linear_249_443" x1="66.4669" y1="195.896" x2="16.9139" y2="1.04305" gradientUnits="userSpaceOnUse">
<stop stop-color="#FCED00"/>
<stop offset="0.1374" stop-color="#FAC90D"/>
<stop offset="0.3352" stop-color="#F89C1E"/>
<stop offset="0.5255" stop-color="#F6792B"/>
<stop offset="0.7037" stop-color="#F56034"/>
<stop offset="0.865" stop-color="#F4503A"/>
<stop offset="0.9947" stop-color="#F44C3C"/>
</linearGradient>
<linearGradient id="paint5_linear_249_443" x1="11.1802" y1="0.00156082" x2="68.5722" y2="163.979" gradientUnits="userSpaceOnUse">
<stop stop-color="#F7624E"/>
<stop offset="1" stop-color="#FCD714"/>
</linearGradient>
<linearGradient id="paint6_linear_249_443" x1="196.972" y1="16.4603" x2="57.5488" y2="110.529" gradientUnits="userSpaceOnUse">
<stop stop-color="#993EFF"/>
<stop offset="0.143" stop-color="#9B3EFB"/>
<stop offset="0.2865" stop-color="#A03FEF"/>
<stop offset="0.4303" stop-color="#AA40DB"/>
<stop offset="0.5743" stop-color="#B742BF"/>
<stop offset="0.7186" stop-color="#C8459A"/>
<stop offset="0.8612" stop-color="#DD486E"/>
<stop offset="1" stop-color="#F44B3C"/>
</linearGradient>
<linearGradient id="paint7_linear_249_443" x1="108.491" y1="0.105469" x2="56.6468" y2="96.8948" gradientUnits="userSpaceOnUse">
<stop stop-color="#8022F3"/>
<stop offset="1" stop-color="#BE2850"/>
</linearGradient>
<linearGradient id="paint8_linear_249_443" x1="233.295" y1="52.1751" x2="93.9142" y2="64.8461" gradientUnits="userSpaceOnUse">
<stop stop-color="#B851FF"/>
<stop offset="0.474928" stop-color="#BD52F4"/>
<stop offset="1" stop-color="white" stop-opacity="0"/>
</linearGradient>
</defs>
</svg>
