<svg width="32" height="32" viewBox="0 0 32 32" fill="none" xmlns="http://www.w3.org/2000/svg">
<path d="M0 17.3531C0 24.6764 7.61935 32 15.9997 32C25.1746 32 32.5457 24.2776 31.9683 14.9784C31.4646 6.87423 24.7706 0.338062 16.6575 0.0132757C13.0986 -0.129832 9.7844 0.891299 7.06499 2.72542C7.06499 1.43019 6.01498 0.380175 4.71919 0.380175H0.000186235C0.000186235 0.380175 0 10.0299 0 17.3531ZM15.9997 7.06448C20.9347 7.06448 24.935 11.0653 24.935 15.9997C24.935 20.9347 20.9347 24.935 15.9997 24.935C11.0653 24.935 7.06481 20.9347 7.06481 15.9997C7.06481 11.0653 11.0653 7.06448 15.9997 7.06448Z" fill="url(#paint0_linear_249_481)"/>
<path d="M0 5.98828C0 8.49806 0 10.8858 0 13.8186C1.03473 16.3587 2.88674 19.467 6.00864 21.8721C12.6363 26.9777 18.7845 24.4903 18.7845 24.4903L18.7813 24.4871C17.9052 24.7741 16.9718 24.9345 15.9995 24.9345C11.0651 24.9345 7.06462 20.9342 7.06462 15.9993C7.06462 15.0743 7.20549 14.1819 7.46599 13.3421L0 5.98828Z" fill="url(#paint1_linear_249_481)"/>
<path d="M26.4567 28.1083C28.5545 24.9491 29.1977 20.42 24.9349 14.2695C24.9349 14.2695 26.9542 24.0267 20.6783 28.1867C17.1439 30.5297 13.2731 31.0082 10.5654 30.9786C12.2877 31.6301 14.1245 31.9992 15.9998 31.9992C19.9978 31.9994 23.6523 30.5322 26.4567 28.1083Z" fill="#35029C"/>
<path d="M11.8389 8.09018L11.8432 8.09205C13.0855 7.43726 14.4983 7.06272 15.9998 7.06272C19.7737 7.06272 22.994 9.40573 24.3037 12.7134L24.3103 12.716C24.3103 12.716 27.3641 18.8976 25.1041 24.1467C23.1335 28.7224 20.6128 30.826 17.8209 31.893C26.1278 30.9518 32.5073 23.6516 31.968 14.9767C31.842 12.9495 31.3287 11.0203 30.503 9.26206C28.5355 7.38173 26.21 6.05538 23.8344 5.57444C14.9634 3.77833 11.8389 8.09018 11.8389 8.09018Z" fill="url(#paint2_linear_249_481)"/>
<path d="M11.8389 8.09029L11.8432 8.09215C12.2244 7.89128 12.6234 7.7206 13.0346 7.57544C15.0107 6.49375 18.0502 5.94759 22.5486 7.06282C27.0425 8.17768 30.2623 11.2972 31.7218 13.039C31.4727 11.7174 31.0611 10.4501 30.5028 9.26198C28.5353 7.38165 26.2098 6.0553 23.8342 5.57436C14.9634 3.77844 11.8389 8.09029 11.8389 8.09029Z" fill="#022C90"/>
<path d="M24.3037 12.7119L24.3102 12.7145C24.3102 12.7145 27.3641 18.896 25.104 24.1452C23.1335 28.7209 20.6127 30.8244 17.8208 31.8914C19.1915 31.736 20.5084 31.4043 21.7518 30.9251C26.1158 28.0625 27.8389 23.2364 26.6275 17.3528C25.066 9.76623 20.0582 8.03516 20.0582 8.03516C20.0582 8.03516 20.0569 8.03907 20.0565 8.03944C21.9804 9.02498 23.5011 10.686 24.3037 12.7119Z" fill="url(#paint3_linear_249_481)"/>
<path d="M12.6387 24.2784L12.6352 24.2732C9.36943 22.9437 7.06481 19.7424 7.06481 15.9987C7.06481 15.8839 7.07748 15.7713 7.08195 15.6573L7.06481 15.6305V2.72415C7.06481 1.42892 6.01479 0.378906 4.719 0.378906H0C0 0.378906 0 4.30411 0 9.04715C3.41725 22.9245 12.6387 24.2784 12.6387 24.2784Z" fill="url(#paint4_linear_249_481)"/>
<path opacity="0.5" d="M12.6387 24.2794L12.6352 24.2742C7.22636 22.7306 1.78866 13.908 0 5.01562C0 6.2244 0 7.59715 0 9.04816C3.41725 22.9255 12.6387 24.2794 12.6387 24.2794Z" fill="#F44B3C"/>
<path d="M5.81243 12.8386C6.38635 18.8653 7.97004 20.5559 8.47669 20.9498C8.57619 21.0275 8.6347 21.0544 8.6347 21.0544V21.054C7.64469 19.6168 7.0648 17.8762 7.0648 15.9987C7.0648 15.8839 7.07748 15.7713 7.08195 15.6573L7.0648 15.6305V2.72415C7.0648 1.42892 6.01479 0.378906 4.719 0.378906H0C2.58208 1.4688 5.12484 5.62152 5.81243 12.8386Z" fill="url(#paint5_linear_249_481)"/>
<path d="M7.06494 15.63L7.08208 15.6568C7.08115 15.6807 7.07985 15.7047 7.07854 15.7289C7.17768 12.4108 9.0785 9.54904 11.8432 8.09244L11.8389 8.09057C11.8389 8.09057 14.9634 3.77872 23.8344 5.57464C26.21 6.05558 28.5355 7.38193 30.503 9.26227C30.5908 9.44916 26.5572 0.0117188 16.6578 0.0117188C13.0958 0.0117188 9.78473 0.889741 7.06531 2.72386V15.63H7.06494Z" fill="url(#paint6_linear_249_481)"/>
<path d="M20.0581 0.408432C19.0116 0.156503 17.8796 0.0117188 16.6574 0.0117188C13.0954 0.0117188 9.78435 0.889742 7.06494 2.72386V15.6302L7.08208 15.657C7.08115 15.6809 7.07985 15.7049 7.07854 15.7291C7.11637 14.4654 7.41675 13.2693 7.92489 12.1907C7.9411 9.79333 8.46247 5.3011 11.8387 2.56622C14.3882 0.5016 17.6092 0.221722 20.0581 0.408432Z" fill="url(#paint7_linear_249_481)"/>
<path d="M11.6821 8.1827C11.7362 8.15289 11.7887 8.11953 11.8435 8.09065L11.8392 8.08879C11.8392 8.08879 14.9637 3.77694 23.8347 5.57286C26.2103 6.05379 28.5358 7.38015 30.5033 9.26048C30.5481 9.35514 29.5275 6.97002 27.2195 4.59794C24.9423 3.71619 21.7255 3.26227 18.3316 4.09762C13.7009 5.23764 12.1728 7.08983 11.6821 8.1827Z" fill="url(#paint8_linear_249_481)"/>
<defs>
<linearGradient id="paint0_linear_249_481" x1="32" y1="16" x2="5.72204e-05" y2="16" gradientUnits="userSpaceOnUse">
<stop stop-color="#35029C"/>
<stop offset="0.2578" stop-color="#38049E"/>
<stop offset="0.4268" stop-color="#4009A5"/>
<stop offset="0.5704" stop-color="#4F13B0"/>
<stop offset="0.6997" stop-color="#6520BF"/>
<stop offset="0.8194" stop-color="#8031D4"/>
<stop offset="0.9305" stop-color="#A145EC"/>
<stop offset="1" stop-color="#BA55FF"/>
</linearGradient>
<linearGradient id="paint1_linear_249_481" x1="-0.186338" y1="9.13007" x2="9.39226" y2="25.0961" gradientUnits="userSpaceOnUse">
<stop stop-color="#CE6DFE"/>
<stop offset="0.238141" stop-color="#C664F8"/>
<stop offset="0.519194" stop-color="#B44FEB"/>
<stop offset="0.752618" stop-color="#9A38DC"/>
<stop offset="1" stop-color="#721FCC"/>
</linearGradient>
<linearGradient id="paint2_linear_249_481" x1="25.2524" y1="30.6363" x2="20.843" y2="5.1243" gradientUnits="userSpaceOnUse">
<stop stop-color="#64EBEC"/>
<stop offset="0.1103" stop-color="#5CC5E2"/>
<stop offset="0.2592" stop-color="#5298D7"/>
<stop offset="0.4093" stop-color="#4A73CD"/>
<stop offset="0.5585" stop-color="#4356C6"/>
<stop offset="0.7064" stop-color="#3F41C0"/>
<stop offset="0.8525" stop-color="#3C35BD"/>
<stop offset="0.9947" stop-color="#3B31BC"/>
</linearGradient>
<linearGradient id="paint3_linear_249_481" x1="22.413" y1="8.03516" x2="22.413" y2="31.8914" gradientUnits="userSpaceOnUse">
<stop stop-color="#514FD2"/>
<stop offset="0.500752" stop-color="#63A5DE"/>
<stop offset="1" stop-color="#80EBF0"/>
</linearGradient>
<linearGradient id="paint4_linear_249_481" x1="8.30837" y1="24.4856" x2="2.11424" y2="0.128916" gradientUnits="userSpaceOnUse">
<stop stop-color="#FCED00"/>
<stop offset="0.1374" stop-color="#FAC90D"/>
<stop offset="0.3352" stop-color="#F89C1E"/>
<stop offset="0.5255" stop-color="#F6792B"/>
<stop offset="0.7037" stop-color="#F56034"/>
<stop offset="0.865" stop-color="#F4503A"/>
<stop offset="0.9947" stop-color="#F44C3C"/>
</linearGradient>
<linearGradient id="paint5_linear_249_481" x1="1.39734" y1="-0.00126974" x2="8.57135" y2="20.4959" gradientUnits="userSpaceOnUse">
<stop stop-color="#F7624E"/>
<stop offset="1" stop-color="#FCD714"/>
</linearGradient>
<linearGradient id="paint6_linear_249_481" x1="24.6216" y1="2.05607" x2="7.19372" y2="13.8146" gradientUnits="userSpaceOnUse">
<stop stop-color="#993EFF"/>
<stop offset="0.143" stop-color="#9B3EFB"/>
<stop offset="0.2865" stop-color="#A03FEF"/>
<stop offset="0.4303" stop-color="#AA40DB"/>
<stop offset="0.5743" stop-color="#B742BF"/>
<stop offset="0.7186" stop-color="#C8459A"/>
<stop offset="0.8612" stop-color="#DD486E"/>
<stop offset="1" stop-color="#F44B3C"/>
</linearGradient>
<linearGradient id="paint7_linear_249_481" x1="13.5615" y1="0.0117188" x2="7.08097" y2="12.1104" gradientUnits="userSpaceOnUse">
<stop stop-color="#8022F3"/>
<stop offset="1" stop-color="#BE2850"/>
</linearGradient>
<linearGradient id="paint8_linear_249_481" x1="29.1623" y1="6.51847" x2="11.7397" y2="8.10234" gradientUnits="userSpaceOnUse">
<stop stop-color="#B851FF"/>
<stop offset="0.474928" stop-color="#BD52F4"/>
<stop offset="1" stop-color="white" stop-opacity="0"/>
</linearGradient>
</defs>
</svg>
